# xmcd
#
# Track frame offsets:
#	150
#	12807
#	25433
#	35770
#	47389
#	58923
#	69605
#	80679
#	92233
#	101673
#
# Disc length: 1494 seconds
#
# Revision: 1
# Processed by: cddbd v1.5.2PL0 Copyright (c) Steve Scherf et al.
# Submitted via: audiograbber 1.83.01
#
DISCID=8405d40a
DTITLE=Hank Thompson - Brand New Hank
DYEAR=1978
DGENRE=Country
TTITLE0=I'm Just Gettin' By
TTITLE1=Dance With Me Molly
TTITLE2=Signs Of Love
TTITLE3=Through The Bottom Of The Glass
TTITLE4=Have A Good Time
TTITLE5=I Hear The South Callin' Me
TTITLE6=Point Of No Return
TTITLE7=Tony's Tank Up, Drive
TTITLE8=That Want You, Need You, Got To Have You Feelin'
TTITLE9=World's Greatest Feelin'
EXTD=
EXTT0=
EXTT1=
EXTT2=
EXTT3=
EXTT4=
EXTT5=
EXTT6=
EXTT7=
EXTT8=
EXTT9=
PLAYORDER=
